<svg xmlns="http://www.w3.org/2000/svg" xmlns:xlink="http://www.w3.org/1999/xlink" style="margin: auto; background: rgba(255, 255, 255, 0); display: block; shape-rendering: auto;" width="200px" height="200px" viewBox="0 0 100 100" preserveAspectRatio="xMidYMid">
<path fill-rule="evenodd" clip-rule="evenodd" d="M12.7717 44.0218C13.0435 43.4103 14.538 35.6658 14.8777 35.3261C14.9456 35.2582 15.2853 35.0544 15.4212 34.9864L17.0516 33.8995C17.2554 34.2391 18.0027 34.7826 18.4103 35.0544C18.8859 35.3261 19.6331 35.6658 20.3125 35.6658C20.3125 37.7038 20.2446 38.8587 21.1277 40.7609C22.0109 42.6631 22.1467 42.3913 22.8261 43.4783C22.1467 43.4103 19.3614 42.1875 18.75 42.1875C18.1386 42.1875 13.3152 44.0218 12.7717 44.0218ZM25.1359 5.84241H26.3587C28.0571 5.97828 29.7554 6.52175 31.1821 7.60871C32.2011 8.42393 31.1821 8.01632 32.6087 8.28806C33.7636 8.5598 34.6467 9.17121 35.2581 9.98643C35.8016 10.6658 36.0734 11.5489 36.0734 12.5V13.3832C36.1413 13.519 38.4511 14.606 38.4511 17.0516C38.4511 18.75 38.1793 18.818 37.5679 19.9728C37.0244 20.9919 37.2962 23.6413 34.7147 25.4076C34.375 25.6794 34.1033 25.7473 33.6956 25.9511C33.6956 27.9891 33.8994 27.5815 33.288 29.3478L32.3369 32.1332C33.288 32.8125 34.2391 33.4239 35.2581 34.1033C36.0734 34.6468 35.9375 34.5109 36.2092 35.5978C36.2772 35.9375 36.413 36.2093 36.2772 36.5489C36.0054 37.0924 35.1902 37.2283 34.8505 36.6848C34.3071 35.8016 35.2581 36.0054 33.8315 35.1223C33.1522 34.6468 32.4728 34.2391 31.7935 33.7636C31.7255 34.375 31.3179 34.375 31.3179 34.9185C31.3179 35.394 31.3179 36.0054 31.3179 36.481C31.3179 38.3152 30.9783 40.2174 30.0951 41.712C29.3478 43.0027 29.2119 43.0027 28.8043 43.5462C29.2119 43.4783 30.3668 43.0707 30.8424 42.9348C31.25 42.7989 32.5408 42.3234 32.8804 42.3234C33.288 42.3234 35.8696 43.6821 36.413 43.9538C36.413 43.8859 35.8696 42.3913 36.9565 42.3913C37.8397 42.3913 37.8397 42.7989 38.0435 43.75C38.1793 44.3614 38.9266 46.2636 37.7038 46.2636C37.0924 46.2636 35.4619 45.3125 34.7826 44.9728C32.6087 43.8859 33.1522 43.8859 31.9973 44.2935C30.9783 44.6332 29.9592 44.9728 28.9402 45.3125C28.3967 45.5163 26.2907 46.2636 25.8831 46.2636C25.2717 46.2636 19.1576 43.9538 18.8179 43.9538C18.4103 43.9538 12.3641 46.2636 11.7527 46.2636C10.5978 46.2636 11.0734 44.9728 11.1413 44.4973C11.413 43.2065 13.1793 34.9185 13.4511 34.5788L16.1005 32.8125C16.1005 32.4049 15.8967 32.2011 15.8288 31.8614C15.7609 31.5897 15.6929 31.1821 15.625 30.8424C15.625 30.0951 15.625 29.2799 15.625 28.4647C14.8777 28.2609 14.1304 27.7174 13.5869 27.1739L13.519 27.106C12.6359 26.1549 12.4321 25.6794 12.0244 24.3207C11.8886 23.9131 11.8886 23.981 11.481 23.8451C8.55977 22.8261 7.54075 19.0218 9.91847 16.644C9.91847 16.644 9.91847 16.644 9.9864 16.5761C9.9864 16.5761 9.9864 16.5761 10.0543 16.5082L10.3261 16.2364C10.6658 15.9647 11.0054 15.8288 11.3451 15.693C10.8696 14.9457 10.8696 14.1305 10.8696 13.3152C10.8696 10.7337 13.4511 8.22012 15.9647 8.22012C18.5462 8.22012 18.0706 8.69567 19.1576 8.89947C19.7011 8.01632 20.6522 7.33697 21.6033 6.79349C22.6902 6.25002 23.913 5.91034 25.1359 5.84241ZM21.875 36.3451V35.7337H29.0081C29.4158 35.7337 29.3478 35.6658 29.6875 35.6658C29.6875 38.7908 29.2799 40.1495 27.5815 42.3234L25.8152 44.0897C25.0679 43.5462 23.5734 41.8478 23.0978 41.0326C22.3505 39.8098 21.875 38.3152 21.875 36.3451ZM17.1196 29.8913V28.6006H18.6821C18.6821 29.0082 18.8859 29.6196 18.9538 29.9593L19.769 33.2881C19.8369 33.5598 19.9049 33.6957 19.9728 33.9674C19.5652 33.7636 19.3614 33.8315 18.8179 33.4239C17.731 32.6087 17.1196 31.5218 17.1196 29.8913ZM13.3831 23.2337C13.3831 21.8071 14.4701 21.6033 15.5571 21.6033C15.5571 22.4864 15.4891 23.0978 16.0326 23.9131C16.4402 24.5245 17.2554 25.2038 17.7989 25.7473C18.0706 26.019 18.2065 26.6305 18.2744 27.106C16.7119 27.106 15.625 26.9701 14.606 25.8832C13.9946 25.1359 13.3831 23.981 13.3831 23.2337ZM27.3777 22.894V27.0381C25.8831 27.0381 25 26.7663 25 27.9212C25 28.3288 25.3397 28.6006 25.6793 28.6006C29.4837 28.6006 28.8723 29.2799 28.8723 24.5924C28.8723 23.5055 28.6005 21.5353 30.5706 21.5353H31.9973V27.4457C31.9973 27.7174 30.3668 32.6087 30.163 33.1522C29.8913 33.7636 29.3478 34.1033 28.5326 34.1033H23.0978C21.4674 34.1033 21.3994 32.8804 21.0598 31.6576L19.4973 25.2718C19.2255 24.2527 17.1196 23.5734 17.1196 21.875V16.1685C17.1196 15.3533 17.5272 14.8777 18.0706 14.606C18.1386 15.2174 18.6821 15.7609 19.0217 16.1006C19.7011 16.712 20.3804 16.8478 21.2636 16.8478C22.0788 16.8478 22.5543 16.4402 23.0978 16.1685L23.3016 16.3044C23.3696 16.3723 23.4375 16.3723 23.5734 16.4402C23.7772 16.5082 23.913 16.5761 24.1168 16.644C25.4755 17.0516 27.038 16.8478 28.2609 16.2364C28.8043 15.9647 29.6196 15.4212 29.8913 14.9457C31.9973 16.1006 31.9973 17.8669 31.9973 19.9728H30.163C28.8043 19.9728 27.3777 21.4674 27.3777 22.894ZM34.1712 13.7908C34.1712 14.0625 34.1712 14.3343 34.5788 14.5381C35.1223 14.8098 35.5978 14.6739 36.3451 15.7609C36.9565 16.5761 36.8886 17.9348 36.2772 18.75C35.6658 19.5652 35.6658 20.4484 35.3261 21.7391C35.1223 22.5544 34.375 23.7772 33.6277 23.981C33.6277 22.4185 33.7636 18.0027 33.4239 16.7799C33.0842 15.625 32.4728 14.8098 31.5897 14.0625C31.3859 13.9266 31.25 13.7908 31.0462 13.6549C29.0761 12.4321 29.3478 13.519 28.0571 14.4701C27.038 15.2174 25.4755 15.4891 24.2527 14.9457C23.3696 14.5381 23.5054 14.3343 22.8261 14.3343C22.1467 14.3343 22.0788 15.2853 20.9918 15.2853C20.3804 15.2853 19.8369 14.8098 19.6331 14.4022C19.2255 13.519 19.769 12.9076 18.4103 12.9076C16.9837 12.9076 15.4891 14.3343 15.4891 15.8288V19.9728C14.3342 19.9728 13.8587 19.9049 12.8397 20.6522C12.5 20.9239 11.8886 21.6033 11.8206 22.0788C11.2772 22.0788 10.8016 21.5353 10.5299 21.1957C9.71466 20.1766 9.85053 18.6821 10.7337 17.731L10.8016 17.6631C10.8016 17.6631 10.8016 17.6631 10.8696 17.5951C10.8696 17.5951 10.8696 17.5951 10.9375 17.5272C11.0734 17.3913 11.1413 17.3234 11.2772 17.2555C11.5489 17.0516 11.8206 16.9837 12.1603 16.9158C13.6549 16.5761 12.8397 15.693 12.5679 14.7419C11.9565 12.9076 12.9076 11.0055 14.7418 10.1223C17.1875 8.96741 18.75 10.8696 19.2935 10.8696C19.6331 10.8696 19.9049 10.6658 20.0408 10.394C20.856 8.96741 22.0109 8.22012 23.5734 7.74458C25.9511 6.9973 28.9402 7.60871 30.6386 9.37502C31.1821 9.91849 31.0462 9.71469 31.9293 9.85056C32.5408 9.91849 32.8125 10.0544 33.2201 10.3261C35.0543 11.6169 34.1712 13.3832 34.1712 13.7908Z" fill="#285CA6"/>
<path fill-rule="evenodd" clip-rule="evenodd" d="M20.3125 20.7201C20.3125 21.1957 20.5163 21.6033 20.9918 21.6033H23.5054C24.4565 21.6033 24.4565 20.0408 23.5054 20.0408H20.9918C20.5842 19.9728 20.3125 20.3125 20.3125 20.7201Z" fill="#285CA6"/>
<path fill-rule="evenodd" clip-rule="evenodd" d="M35.462 39.4701C35.462 40.625 37.0245 40.625 37.0245 39.4701C37.0245 38.519 35.462 38.519 35.462 39.4701Z" fill="#285CA6"/>
<path d="M25 0C31.9293 0 38.1793 2.78533 42.663 7.33696C47.1467 11.8886 50 18.1386 50 25C50 31.8614 47.2147 38.1793 42.663 42.663C38.1114 47.2147 31.8614 50 25 50C18.1386 50 11.8207 47.2147 7.33696 42.663C2.78533 38.1793 0 31.9293 0 25C0 18.0707 2.78533 11.8207 7.33696 7.33696C11.8886 2.85326 18.0707 0 25 0ZM40.7609 9.23913C36.7527 5.23098 31.1821 2.71739 25 2.71739C18.8179 2.71739 13.2473 5.23098 9.23913 9.23913C5.23098 13.2473 2.71739 18.8859 2.71739 25C2.71739 31.1141 5.23098 36.7527 9.23913 40.7609C13.2473 44.769 18.8179 47.2826 25 47.2826C31.1821 47.2826 36.7527 44.837 40.7609 40.7609C44.769 36.6848 47.2826 31.1821 47.2826 25C47.2826 18.8179 44.837 13.2473 40.7609 9.23913Z" fill="#285CA6"/>
</svg>
