<svg width="50" height="50" viewBox="0 0 50 50" fill="none" xmlns="http://www.w3.org/2000/svg">
<path fill-rule="evenodd" clip-rule="evenodd" d="M15.9647 42.7989H34.0353V45.3125H15.9647V42.7989ZM23.7772 40.0815H26.2908V41.4402H23.7772V40.0815ZM12.6359 27.1739C13.1114 27.1739 13.6549 27.1739 14.1304 27.1739C15.4891 27.1739 14.8098 27.038 16.1006 28.1929C16.7799 28.8043 19.5652 27.9891 20.2446 28.5326L20.9919 29.2799C21.1957 29.6196 20.9919 30.2989 21.1957 30.7065C21.2636 30.7744 22.5544 32.1331 22.6902 32.2011C23.1658 32.5408 24.7962 32.4049 25.6114 32.4049C26.3587 32.4049 26.2228 32.5408 26.6304 32.8804C27.1739 33.356 26.9022 33.2201 26.9701 34.0353C27.0381 34.9864 27.7853 35.2581 28.2609 35.8696C27.8533 35.8696 27.3777 36.0054 26.9701 36.0734C26.019 36.2092 25.0679 36.2092 24.0489 36.2092C22.6223 36.1413 20.4484 35.4619 19.2256 34.8505C19.0218 34.7147 18.8859 34.6467 18.75 34.5788L17.3913 33.6956C17.2554 33.5598 17.1196 33.4918 16.9837 33.356C16.8478 33.2201 16.712 33.1522 16.5761 33.0163C15.1495 31.7255 14.0625 30.231 13.3152 28.3967L12.6359 27.1739ZM13.6549 23.1657C13.587 22.9619 13.3152 22.4185 13.1794 22.2147C12.9076 21.875 12.6359 21.9429 12.0924 21.9429C12.1603 21.1277 12.2962 20.6522 12.5 19.9049C12.7038 19.1576 12.4321 19.3614 15.4891 19.3614C15.6929 19.3614 16.5082 20.1766 16.5082 20.3804C16.5082 22.2147 16.712 21.5353 15.4891 22.8261C15.2174 23.0978 15.2174 23.2337 14.8098 23.2337C14.4701 23.2337 13.9946 23.1657 13.6549 23.1657ZM26.3587 15.6929C26.3587 14.8098 26.2908 15.0815 27.1739 14.1984C28.1929 13.1793 27.1739 12.9076 27.8533 12.2962C27.9891 12.1603 28.125 12.0244 28.2609 11.8886C28.5326 11.6168 28.8723 11.2092 29.212 11.0054C29.5516 11.0734 29.8234 11.2092 30.0951 11.3451C34.8506 13.4511 37.9756 17.7989 37.9756 23.5054C37.5 23.2337 37.2283 22.6223 36.5489 22.5543C34.1033 22.4185 35.5978 22.894 33.9674 21.5353C33.6277 21.2636 33.4919 21.3315 32.9484 21.3315C31.5218 21.3315 31.9294 21.3994 31.1821 20.7201C30.5707 20.1766 31.1141 19.4293 30.8424 18.6141C30.7065 18.2744 29.4158 16.9157 29.0082 16.8478C27.7853 16.644 27.5815 17.1875 26.9022 16.5081C26.7663 16.2364 26.3587 15.9647 26.3587 15.6929ZM35.5978 13.6549C35.6658 13.3831 36.2093 12.8397 36.481 12.7038C36.6848 13.0435 37.0924 13.3831 37.2962 13.6549C37.5679 14.0625 37.7718 14.4022 38.0435 14.7418C38.587 15.5571 38.9266 16.2364 39.3343 17.1875C40.1495 18.8859 40.5571 21.5353 40.5571 23.3696C40.5571 26.9022 38.9946 30.9783 36.5489 33.5598C36.4131 33.7636 36.3451 33.7636 36.2093 33.9674C35.8696 34.375 34.7147 35.3261 34.3071 35.5978C33.2201 36.413 32.7446 36.6168 31.5897 37.2282C27.3777 39.4022 22.0788 39.1304 17.7989 37.0244C17.4593 36.8886 17.1875 36.6848 16.9158 36.481L15.625 35.6657C15.2853 35.4619 14.9457 35.0543 14.4022 34.7147L15.2853 33.7636C16.2364 34.375 16.712 35.0543 18.4103 35.8696C22.4864 37.9755 27.3777 37.9755 31.1821 36.0734C31.4538 35.9375 31.7256 35.8016 31.9973 35.6657L33.6277 34.5788C34.9864 33.5598 35.8016 32.6087 36.8207 31.1821C37.5 30.2989 38.1794 28.6685 38.587 27.6494C40.1495 23.0299 39.1984 18.2744 36.4131 14.4701C36.1413 14.2663 35.8016 13.9266 35.5978 13.6549ZM18.1386 15.4212H16.8478C16.5761 15.4212 15.8288 14.538 15.6929 14.3342C15.8288 13.9266 17.3913 12.7717 17.7989 12.5C18.2065 12.2282 18.6141 12.0244 19.0218 11.7527C19.4294 11.5489 19.9728 11.2772 20.3804 11.2092C20.3804 12.0924 20.4484 11.8886 19.9728 12.3641C19.769 12.5679 19.2935 12.9755 19.1576 13.2473C19.0218 13.5869 19.2256 14.2663 19.0218 14.606C18.9538 14.7418 18.3424 15.4212 18.1386 15.4212ZM25 14.7418C25 16.7799 24.7962 16.1005 26.2228 17.5272C27.0381 18.4103 27.1739 17.8668 28.4647 18.0027C28.8723 18.0706 29.0082 18.3424 29.212 18.5462C29.5516 18.8859 29.5516 18.9538 29.5516 19.6331C29.5516 21.1277 29.5516 20.856 30.2989 21.6032C31.25 22.5543 30.9783 22.5543 32.7446 22.5543C33.356 22.5543 33.2201 22.6223 34.0353 23.4375C34.375 23.7772 34.375 23.8451 34.9864 23.8451C35.3261 23.8451 36.0734 23.7772 36.3451 23.913C36.481 23.981 37.7038 25.2717 37.7038 25.2717C37.7038 26.2228 37.0245 27.9212 36.6848 28.7364C35.6658 30.9782 33.4239 33.4918 31.1821 34.5788C30.7065 34.7826 30.1631 35.1902 29.6196 35.2581L28.5326 34.2391C27.9891 33.6956 28.6685 33.1522 28.0571 32.4728C27.8533 32.2011 27.5815 31.9973 27.3098 31.7255C26.4946 30.9103 26.6304 30.9782 25.0679 30.9782C23.0978 30.9782 23.5734 31.1821 22.6902 30.2989C22.2826 29.8913 22.5544 29.6196 22.4864 29.0081C22.4185 28.6005 21.3995 27.7174 21.1277 27.3777C20.7201 26.9701 20.5843 27.106 19.837 27.106C19.2256 27.106 17.2554 27.2418 16.9158 27.038C16.8478 26.9701 16.3044 26.4266 16.1685 26.2907C15.8967 26.019 15.6929 25.7473 15.1495 25.7473H12.3641C12.3641 25.3397 12.1603 24.2527 12.1603 23.2337C12.5 23.2337 12.3641 23.2337 12.5679 23.5054C13.2473 24.7282 12.5 24.5244 15.5571 24.5244C15.8288 24.5244 18.0027 22.4185 18.0027 22.0788C18.0027 19.5652 18.2065 19.9049 17.3234 19.0217C15.9647 17.663 16.4402 18.0027 13.3832 18.0027C13.519 17.3234 14.0625 16.5761 14.4701 16.0326C14.606 15.8288 14.8098 15.5571 14.8777 15.3532C15.4212 15.4891 16.1685 16.7799 16.5761 16.7799C19.2935 16.7799 18.75 17.0516 19.9728 15.7609C20.9239 14.8098 20.3804 15.3532 20.5843 13.9946C20.6522 13.5869 21.3315 13.0435 21.6033 12.7717C22.0788 12.2962 21.875 11.7527 21.875 10.7337L23.2337 10.4619C25.4756 10.1223 26.6304 10.5978 27.6495 10.5978C27.1739 11.2772 26.2908 11.481 26.2908 12.6359C26.2908 13.519 26.2908 13.3152 25.7473 13.8587C25.4756 13.9946 25 14.3342 25 14.7418ZM10.6658 23.2337C10.6658 26.0869 11.8207 29.6196 13.587 31.8614C13.8587 32.2011 14.1304 32.4728 14.3343 32.8125L13.519 33.6956C13.1794 33.4239 12.8397 32.8125 12.5 32.6087C12.1603 32.8125 11.8207 33.0842 11.481 33.288C11.6848 33.6956 12.0924 34.1032 12.4321 34.5109C13.0435 35.2581 14.7419 36.7527 15.6929 37.2962C15.8288 37.3641 15.8968 37.4321 16.0326 37.5C16.9158 38.0435 18.0027 38.5869 18.9538 38.9946C19.7011 39.3342 21.4674 39.8098 22.4185 39.9456V41.4402H15.2853C14.8777 41.4402 14.6739 41.7119 14.6739 42.0516V45.2446L14.8777 45.856C14.8777 46.2636 15.1495 46.4674 15.4891 46.4674H34.5109C34.9185 46.4674 35.1223 46.1956 35.1223 45.856L35.394 45.2446V42.0516C35.394 41.644 35.1223 41.4402 34.7826 41.4402H27.5815V39.9456C29.3478 39.8098 31.8614 38.7228 33.356 37.9076C34.3071 37.3641 34.7826 37.0244 35.6658 36.3451C36.6848 35.5978 37.7038 34.375 38.519 33.356C40.6929 30.7065 41.9158 26.6304 41.9158 22.9619C41.9158 19.5652 40.7609 16.2364 38.8587 13.519C38.3832 12.8397 37.1603 11.3451 36.5489 10.8016L35.1223 9.64673C34.9864 9.7826 34.375 10.4619 34.3071 10.7337C34.7147 11.0054 35.1223 11.2772 35.394 11.6848L34.6468 12.6359C32.269 10.5299 28.9402 8.89944 25.7473 8.89944C23.1658 8.89944 21.1957 9.10325 18.8859 10.2581C17.2554 11.0734 16.0326 11.9565 14.8098 13.1793C14.606 13.3831 14.606 13.4511 14.4022 13.6549C14.2663 13.8587 14.1304 13.9266 13.9946 14.1304C11.8886 16.7799 10.6658 19.6331 10.6658 23.2337Z" fill="#285CA6"/>
<path fill-rule="evenodd" clip-rule="evenodd" d="M21.1277 20.2446C21.1277 19.0217 21.3315 19.5652 21.8071 18.8179C22.6902 19.2935 22.5544 19.2935 23.9131 19.2935C24.5245 19.2935 24.5924 19.2255 24.9321 19.5652C25.6114 20.2446 25.5435 19.9728 25.5435 20.856C25.5435 21.3315 24.1848 21.8071 24.1848 22.8261V23.8451C22.962 23.8451 23.3696 23.913 22.6223 23.1657C22.1468 22.6902 22.3506 22.7581 22.3506 21.9429C22.3506 21.1956 21.1277 20.7201 21.1277 20.2446ZM19.837 19.2935C19.837 21.1277 19.7011 20.788 20.6522 21.7391C21.4674 22.5543 20.856 22.4864 21.1277 23.3016C21.1957 23.6413 22.4185 25.1359 23.3016 25.1359C26.1549 25.1359 25.6114 25.2038 25.7473 23.0299C25.7473 22.6223 25.8832 22.6223 26.3587 22.1467C27.1739 21.3315 27.0381 21.6712 27.0381 19.8369C27.0381 19.6331 25.6794 18.0706 25.068 17.9348C24.4565 17.8668 23.7093 18.0706 23.1658 17.8668C21.6712 17.3913 22.1468 16.7119 20.7201 18.1386C20.3804 18.4782 19.837 18.8859 19.837 19.2935Z" fill="#285CA6"/>
<path fill-rule="evenodd" clip-rule="evenodd" d="M24.3207 34.7147C24.3207 35.0544 24.6604 34.9185 25.4756 34.9185C25.8152 34.9185 25.6794 34.4429 25.6794 33.5598H24.2527V34.7147H24.3207Z" fill="#285CA6"/>
<path fill-rule="evenodd" clip-rule="evenodd" d="M17.8669 31.0462H19.1576V29.6875H17.8669V31.0462Z" fill="#285CA6"/>
<path d="M25 0C31.9293 0 38.1793 2.78533 42.663 7.33696C47.1467 11.8886 50 18.1386 50 25C50 31.8614 47.2147 38.1793 42.663 42.663C38.1114 47.2147 31.8614 50 25 50C18.1386 50 11.8207 47.2147 7.33696 42.663C2.78533 38.1793 0 31.9293 0 25C0 18.0707 2.78533 11.8207 7.33696 7.33696C11.8886 2.85326 18.0707 0 25 0ZM40.7609 9.23913C36.7527 5.23098 31.1821 2.71739 25 2.71739C18.8179 2.71739 13.2473 5.23098 9.23913 9.23913C5.23098 13.2473 2.71739 18.8859 2.71739 25C2.71739 31.1141 5.23098 36.7527 9.23913 40.7609C13.2473 44.769 18.8179 47.2826 25 47.2826C31.1821 47.2826 36.7527 44.837 40.7609 40.7609C44.769 36.6848 47.2826 31.1821 47.2826 25C47.2826 18.8179 44.837 13.2473 40.7609 9.23913Z" fill="#285CA6"/>
</svg>
