<svg width="50" height="50" viewBox="0 0 50 50" fill="none" xmlns="http://www.w3.org/2000/svg">
<path fill-rule="evenodd" clip-rule="evenodd" d="M25.5435 41.3723C25.8152 41.5082 25.8832 41.5082 26.019 41.7799C26.087 41.9158 26.2228 42.1875 26.2228 42.3913V44.5652H25.5435V41.3723ZM38.3832 45.1087V45.3805C38.3152 45.6522 38.1114 45.856 37.7718 45.856H12.1603C11.2772 45.856 11.2772 44.5652 12.1603 44.5652H19.2935V33.4919C18.8859 33.4919 18.3424 33.4919 18.3424 32.8805C18.3424 31.9973 19.4294 32.269 20.7881 32.269V29.3478C20.7881 28.3968 22.0788 28.3968 22.0788 29.2799V32.269H27.6495V26.2228H22.0788C22.0788 26.6305 22.2147 27.8533 21.6033 27.8533C20.6522 27.8533 20.7881 27.3098 20.7881 26.2228C20.3805 26.1549 20.1767 25.8152 20.3125 25.4076C20.5163 24.8641 21.1277 24.9321 21.6712 24.9321V18.2745C21.6712 18.0027 21.7392 17.8669 21.943 17.7989C22.2147 17.6631 22.4185 17.731 22.5544 17.6631C22.7582 17.5272 22.6223 17.731 22.6902 17.3913L23.3696 13.7908C23.5055 12.9756 23.7093 12.0245 23.9131 11.1413C23.981 10.6658 24.0489 10.2582 24.1848 9.85056C24.3886 8.7636 25.2038 8.96741 25.4076 9.44295C25.4756 9.57882 25.5435 9.91849 25.5435 10.0544L26.9701 17.1196C27.0381 17.6631 27.0381 17.5951 27.1739 17.6631C27.5136 17.7989 27.9892 17.5951 27.9892 18.3424V25H28.3968C29.6875 25 29.6875 26.087 28.8723 26.2908V32.337H30.7065C31.5218 32.337 31.7256 33.6277 30.3669 33.6277V44.7011H37.5C38.0435 44.6332 38.3152 44.837 38.3832 45.1087ZM23.5055 42.7989C23.5055 42.1196 23.7772 41.5082 24.3207 41.3723V44.5652H23.5055V42.7989ZM22.3506 42.2555V44.6332H20.5163V38.1794H29.212V44.6332H27.5815V42.5951C27.5815 40.4891 25.068 39.0625 23.1658 40.693C22.8261 40.9647 22.3506 41.644 22.3506 42.2555ZM21.1277 34.9185V36.8886H20.5163V33.4919H29.212V36.8886H28.5326C28.5326 36.0055 28.7364 34.443 27.9212 34.443C27.0381 34.443 27.3098 35.5978 27.3098 36.8886H26.4946C26.4946 35.8696 26.6984 34.443 25.8832 34.443C25 34.443 25.2718 35.5978 25.2718 36.8886H24.4565C24.4565 35.8696 24.6604 34.443 23.9131 34.443C22.962 34.443 23.2337 35.7337 23.2337 36.8886H22.4185C22.4185 35.7337 22.6902 34.443 21.875 34.443C21.4674 34.443 21.1277 34.6468 21.1277 34.9185ZM22.962 23.7772H26.8343V24.9321H22.962V23.7772ZM23.3696 19.837V22.4864H22.962V18.8859H26.8343V22.4864H26.4267V19.7011C26.4267 18.8859 25.1359 18.8859 25.1359 19.7011V22.5544H24.5924V19.7011C24.5924 18.8859 23.3696 18.6821 23.3696 19.837ZM24.8642 12.8397H24.9321C24.9321 13.1794 25.8152 17.4593 25.8832 17.6631H23.981L24.6603 14.0625C24.7283 13.6549 24.8642 13.2473 24.8642 12.8397Z" fill="#285CA6"/>
<path fill-rule="evenodd" clip-rule="evenodd" d="M6.4538 32.8805V36.8207C5.63858 36.8207 4.75543 36.6169 4.75543 37.4321C4.75543 38.2473 5.91032 38.0435 7.06521 38.0435C7.94837 38.0435 7.74456 37.0924 7.74456 36.2093C7.74456 35.3261 7.74456 34.5109 7.74456 33.6278C8.69565 34.1033 8.08424 35.2582 8.89945 35.2582C9.91848 35.2582 9.23913 34.1033 10.1902 33.6278C10.1902 34.443 10.1902 35.3261 10.1902 36.1413C10.1902 38.3153 10.0543 38.0435 12.7717 38.0435C13.7908 38.0435 13.587 37.2283 13.587 36.2093C13.587 35.3261 13.587 34.5109 13.587 33.6278C14.4701 33.8995 13.9266 35.2582 14.8777 35.2582C15.0815 35.2582 15.2853 35.1223 15.3533 34.9864C15.4891 34.8506 15.4891 34.7147 15.5571 34.443C15.625 34.0354 15.7609 33.6957 16.1685 33.5598C16.1685 34.375 16.1685 35.2582 16.1685 36.0734C16.1685 38.1114 15.9647 37.9756 18.0706 37.9756C18.9538 37.9756 18.9538 36.6848 18.0706 36.6848H17.3913V32.6767C17.3913 31.7935 15.9647 32.2011 15.625 32.4049C15.3533 32.5408 15.2174 32.7446 14.9456 32.9484C14.4022 32.5408 14.3342 32.1332 13.0435 32.1332C12.7038 32.1332 12.5 32.337 12.5 32.6767V36.6848H11.5489V32.7446C11.5489 31.7935 10.2581 32.0653 9.71467 32.4049C9.375 32.6087 9.30706 32.7446 9.03532 32.8805C8.42391 32.4049 6.4538 31.7256 6.4538 32.8805Z" fill="#285CA6"/>
<path fill-rule="evenodd" clip-rule="evenodd" d="M38.2473 32.8805V36.8207H37.2962C37.2962 36.4131 37.4321 35.462 36.7527 35.462C35.9375 35.462 36.1413 36.4131 36.1413 37.4321C36.1413 38.3152 37.5 38.0435 38.7908 38.0435C39.6739 38.0435 39.4701 37.0924 39.4701 36.2093C39.4701 35.3261 39.4701 34.5109 39.4701 33.6277C40.3533 34.1033 39.8098 35.2582 40.625 35.2582C41.1685 35.2582 41.1685 34.9185 41.3043 34.5109C41.3723 34.0354 41.5081 33.8315 41.9158 33.6277C41.9158 34.443 41.9158 35.3261 41.9158 36.1413C41.9158 38.2473 41.7799 38.0435 44.0897 38.0435C45.2446 38.0435 45.0408 36.7527 44.2255 36.7527H43.1386V32.8125C43.1386 31.6576 41.1685 32.269 40.6929 32.9484C39.8098 32.337 39.9456 32.1332 38.6549 32.1332C38.4511 32.269 38.2473 32.6087 38.2473 32.8805Z" fill="#285CA6"/>
<path fill-rule="evenodd" clip-rule="evenodd" d="M23.5734 29.0082C23.5734 28.4647 23.8451 27.9891 24.2527 27.9212C24.2527 29.8234 24.1168 29.6196 25.9511 29.6196C25.2038 30.9103 23.5734 30.231 23.5734 29.0082ZM25.4755 27.9212C25.7473 27.9891 25.8831 28.1929 26.019 28.3967H25.4755V27.9212ZM22.3505 29.0082C22.3505 30.2989 23.5054 31.5217 24.6603 31.5217C25.4755 31.5217 26.2228 31.4538 26.7663 30.7745C28.1929 29.0082 27.2418 26.4946 24.7962 26.4946C23.4375 26.4946 22.3505 27.7174 22.3505 29.0082Z" fill="#285CA6"/>
<path fill-rule="evenodd" clip-rule="evenodd" d="M32.4049 32.8125V36.8207H31.7255C30.8424 36.8207 30.8424 38.1115 31.7255 38.1115C33.8315 38.1115 33.6277 38.1794 33.6277 36.2772C33.6277 35.3941 33.6277 34.5788 33.6277 33.6957C34.0353 33.7636 34.1712 34.1712 34.2391 34.5109C34.3071 34.7827 34.3071 35.3261 34.9185 35.3261C35.8696 35.3261 35.2581 33.8995 36.2092 33.6957C36.2092 34.443 36.2092 34.7147 36.8206 34.7147C37.5679 34.7147 37.3641 33.9674 37.3641 32.8125C37.3641 31.9294 35.9375 32.337 35.5978 32.5408C35.3261 32.6767 35.1902 32.8805 34.9185 33.0843C34.6467 32.9484 34.5109 32.7446 34.2391 32.5408C33.8315 32.337 32.4049 31.9294 32.4049 32.8125Z" fill="#285CA6"/>
<path fill-rule="evenodd" clip-rule="evenodd" d="M24.3206 6.31796C24.1168 6.25002 24.1848 6.25002 23.9809 6.25002C23.4375 6.25002 23.0299 7.20111 23.8451 7.40492C23.8451 7.67665 23.7771 7.60872 23.7771 8.01633C23.7771 8.49187 24.6603 8.76361 24.8641 8.1522C25.2038 8.42394 25 8.49187 25.5434 8.49187C26.0869 8.49187 26.019 7.81252 25.9511 7.47285C25.9511 7.47285 26.019 7.40492 26.0869 7.40492C26.2228 7.26905 26.1549 7.40492 26.2228 7.26905C26.4266 6.99731 26.4266 6.65763 26.1549 6.45383C25.8831 6.25002 25.9511 6.31796 25.6793 6.31796C25.5434 6.31796 25.6114 6.38589 25.5434 6.25002C25.5434 6.25002 25.4076 5.77448 25.0679 5.63861H24.7962C24.7282 5.63861 24.5924 5.70655 24.5244 5.77448C24.3206 5.91035 24.3206 5.97828 24.3206 6.31796Z" fill="#285CA6"/>
<path fill-rule="evenodd" clip-rule="evenodd" d="M37.5679 43.2745C38.7228 43.2745 39.2663 43.4783 39.2663 42.4592C39.2663 41.8478 38.0435 41.9837 37.5679 41.9837C36.6848 41.9837 36.6848 43.2745 37.5679 43.2745Z" fill="#285CA6"/>
<path fill-rule="evenodd" clip-rule="evenodd" d="M33.288 41.4402C33.288 42.3913 35.7337 42.2554 35.7337 41.5081C35.7337 40.625 34.9864 40.8288 33.8994 40.8288C33.4918 40.8288 33.288 41.1005 33.288 41.4402Z" fill="#285CA6"/>
<path fill-rule="evenodd" clip-rule="evenodd" d="M12.5679 42.3234C12.5679 43.2745 13.0435 43.1386 14.2663 43.1386C15.1495 43.1386 15.1495 41.8478 14.2663 41.8478C13.7908 41.8478 12.5679 41.712 12.5679 42.3234Z" fill="#285CA6"/>
<path fill-rule="evenodd" clip-rule="evenodd" d="M8.35596 40.9647C8.35596 41.8478 10.8016 41.8478 10.8016 40.9647C10.8016 40.1495 9.91846 40.3533 8.96737 40.3533C8.55976 40.3533 8.35596 40.625 8.35596 40.9647Z" fill="#285CA6"/>
<path d="M25 0C31.9293 0 38.1793 2.78533 42.663 7.33696C47.1467 11.8886 50 18.1386 50 25C50 31.8614 47.2147 38.1793 42.663 42.663C38.1114 47.2147 31.8614 50 25 50C18.1386 50 11.8207 47.2147 7.33696 42.663C2.78533 38.1793 0 31.9293 0 25C0 18.0707 2.78533 11.8207 7.33696 7.33696C11.8886 2.85326 18.0707 0 25 0ZM40.7609 9.23913C36.7527 5.23098 31.1821 2.71739 25 2.71739C18.8179 2.71739 13.2473 5.23098 9.23913 9.23913C5.23098 13.2473 2.71739 18.8859 2.71739 25C2.71739 31.1141 5.23098 36.7527 9.23913 40.7609C13.2473 44.769 18.8179 47.2826 25 47.2826C31.1821 47.2826 36.7527 44.837 40.7609 40.7609C44.769 36.6848 47.2826 31.1821 47.2826 25C47.2826 18.8179 44.837 13.2473 40.7609 9.23913Z" fill="#285CA6"/>
</svg>
