<svg width="56" height="56" viewBox="0 0 56 56" fill="none" xmlns="http://www.w3.org/2000/svg">
<circle cx="28" cy="28" r="28" fill="white" fill-opacity="0.8"/>
<path fill-rule="evenodd" clip-rule="evenodd" d="M18.9647 45.7989H37.0353V48.3125H18.9647V45.7989ZM26.7772 43.0815H29.2908V44.4402H26.7772V43.0815ZM15.6359 30.1739C16.1114 30.1739 16.6549 30.1739 17.1304 30.1739C18.4891 30.1739 17.8098 30.038 19.1006 31.1929C19.7799 31.8043 22.5652 30.9891 23.2446 31.5326L23.9919 32.2799C24.1957 32.6196 23.9919 33.2989 24.1957 33.7065C24.2636 33.7744 25.5544 35.1331 25.6902 35.2011C26.1658 35.5408 27.7962 35.4049 28.6114 35.4049C29.3587 35.4049 29.2228 35.5408 29.6304 35.8804C30.1739 36.356 29.9022 36.2201 29.9701 37.0353C30.0381 37.9864 30.7853 38.2581 31.2609 38.8696C30.8533 38.8696 30.3777 39.0054 29.9701 39.0734C29.019 39.2092 28.0679 39.2092 27.0489 39.2092C25.6223 39.1413 23.4484 38.4619 22.2256 37.8505C22.0218 37.7147 21.8859 37.6467 21.75 37.5788L20.3913 36.6956C20.2554 36.5598 20.1196 36.4918 19.9837 36.356C19.8478 36.2201 19.712 36.1522 19.5761 36.0163C18.1495 34.7255 17.0625 33.231 16.3152 31.3967L15.6359 30.1739ZM16.6549 26.1657C16.587 25.9619 16.3152 25.4185 16.1794 25.2147C15.9076 24.875 15.6359 24.9429 15.0924 24.9429C15.1603 24.1277 15.2962 23.6522 15.5 22.9049C15.7038 22.1576 15.4321 22.3614 18.4891 22.3614C18.6929 22.3614 19.5082 23.1766 19.5082 23.3804C19.5082 25.2147 19.712 24.5353 18.4891 25.8261C18.2174 26.0978 18.2174 26.2337 17.8098 26.2337C17.4701 26.2337 16.9946 26.1657 16.6549 26.1657ZM29.3587 18.6929C29.3587 17.8098 29.2908 18.0815 30.1739 17.1984C31.1929 16.1793 30.1739 15.9076 30.8533 15.2962C30.9891 15.1603 31.125 15.0244 31.2609 14.8886C31.5326 14.6168 31.8723 14.2092 32.212 14.0054C32.5516 14.0734 32.8234 14.2092 33.0951 14.3451C37.8506 16.4511 40.9756 20.7989 40.9756 26.5054C40.5 26.2337 40.2283 25.6223 39.5489 25.5543C37.1033 25.4185 38.5978 25.894 36.9674 24.5353C36.6277 24.2636 36.4919 24.3315 35.9484 24.3315C34.5218 24.3315 34.9294 24.3994 34.1821 23.7201C33.5707 23.1766 34.1141 22.4293 33.8424 21.6141C33.7065 21.2744 32.4158 19.9157 32.0082 19.8478C30.7853 19.644 30.5815 20.1875 29.9022 19.5081C29.7663 19.2364 29.3587 18.9647 29.3587 18.6929ZM38.5978 16.6549C38.6658 16.3831 39.2093 15.8397 39.481 15.7038C39.6848 16.0435 40.0924 16.3831 40.2962 16.6549C40.5679 17.0625 40.7718 17.4022 41.0435 17.7418C41.587 18.5571 41.9266 19.2364 42.3343 20.1875C43.1495 21.8859 43.5571 24.5353 43.5571 26.3696C43.5571 29.9022 41.9946 33.9783 39.5489 36.5598C39.4131 36.7636 39.3451 36.7636 39.2093 36.9674C38.8696 37.375 37.7147 38.3261 37.3071 38.5978C36.2201 39.413 35.7446 39.6168 34.5897 40.2282C30.3777 42.4022 25.0788 42.1304 20.7989 40.0244C20.4593 39.8886 20.1875 39.6848 19.9158 39.481L18.625 38.6657C18.2853 38.4619 17.9457 38.0543 17.4022 37.7147L18.2853 36.7636C19.2364 37.375 19.712 38.0543 21.4103 38.8696C25.4864 40.9755 30.3777 40.9755 34.1821 39.0734C34.4538 38.9375 34.7256 38.8016 34.9973 38.6657L36.6277 37.5788C37.9864 36.5598 38.8016 35.6087 39.8207 34.1821C40.5 33.2989 41.1794 31.6685 41.587 30.6494C43.1495 26.0299 42.1984 21.2744 39.4131 17.4701C39.1413 17.2663 38.8016 16.9266 38.5978 16.6549ZM21.1386 18.4212H19.8478C19.5761 18.4212 18.8288 17.538 18.6929 17.3342C18.8288 16.9266 20.3913 15.7717 20.7989 15.5C21.2065 15.2282 21.6141 15.0244 22.0218 14.7527C22.4294 14.5489 22.9728 14.2772 23.3804 14.2092C23.3804 15.0924 23.4484 14.8886 22.9728 15.3641C22.769 15.5679 22.2935 15.9755 22.1576 16.2473C22.0218 16.5869 22.2256 17.2663 22.0218 17.606C21.9538 17.7418 21.3424 18.4212 21.1386 18.4212ZM28 17.7418C28 19.7799 27.7962 19.1005 29.2228 20.5272C30.0381 21.4103 30.1739 20.8668 31.4647 21.0027C31.8723 21.0706 32.0082 21.3424 32.212 21.5462C32.5516 21.8859 32.5516 21.9538 32.5516 22.6331C32.5516 24.1277 32.5516 23.856 33.2989 24.6032C34.25 25.5543 33.9783 25.5543 35.7446 25.5543C36.356 25.5543 36.2201 25.6223 37.0353 26.4375C37.375 26.7772 37.375 26.8451 37.9864 26.8451C38.3261 26.8451 39.0734 26.7772 39.3451 26.913C39.481 26.981 40.7038 28.2717 40.7038 28.2717C40.7038 29.2228 40.0245 30.9212 39.6848 31.7364C38.6658 33.9782 36.4239 36.4918 34.1821 37.5788C33.7065 37.7826 33.1631 38.1902 32.6196 38.2581L31.5326 37.2391C30.9891 36.6956 31.6685 36.1522 31.0571 35.4728C30.8533 35.2011 30.5815 34.9973 30.3098 34.7255C29.4946 33.9103 29.6304 33.9782 28.0679 33.9782C26.0978 33.9782 26.5734 34.1821 25.6902 33.2989C25.2826 32.8913 25.5544 32.6196 25.4864 32.0081C25.4185 31.6005 24.3995 30.7174 24.1277 30.3777C23.7201 29.9701 23.5843 30.106 22.837 30.106C22.2256 30.106 20.2554 30.2418 19.9158 30.038C19.8478 29.9701 19.3044 29.4266 19.1685 29.2907C18.8967 29.019 18.6929 28.7473 18.1495 28.7473H15.3641C15.3641 28.3397 15.1603 27.2527 15.1603 26.2337C15.5 26.2337 15.3641 26.2337 15.5679 26.5054C16.2473 27.7282 15.5 27.5244 18.5571 27.5244C18.8288 27.5244 21.0027 25.4185 21.0027 25.0788C21.0027 22.5652 21.2065 22.9049 20.3234 22.0217C18.9647 20.663 19.4402 21.0027 16.3832 21.0027C16.519 20.3234 17.0625 19.5761 17.4701 19.0326C17.606 18.8288 17.8098 18.5571 17.8777 18.3532C18.4212 18.4891 19.1685 19.7799 19.5761 19.7799C22.2935 19.7799 21.75 20.0516 22.9728 18.7609C23.9239 17.8098 23.3804 18.3532 23.5843 16.9946C23.6522 16.5869 24.3315 16.0435 24.6033 15.7717C25.0788 15.2962 24.875 14.7527 24.875 13.7337L26.2337 13.4619C28.4756 13.1223 29.6304 13.5978 30.6495 13.5978C30.1739 14.2772 29.2908 14.481 29.2908 15.6359C29.2908 16.519 29.2908 16.3152 28.7473 16.8587C28.4756 16.9946 28 17.3342 28 17.7418ZM13.6658 26.2337C13.6658 29.0869 14.8207 32.6196 16.587 34.8614C16.8587 35.2011 17.1304 35.4728 17.3343 35.8125L16.519 36.6956C16.1794 36.4239 15.8397 35.8125 15.5 35.6087C15.1603 35.8125 14.8207 36.0842 14.481 36.288C14.6848 36.6956 15.0924 37.1032 15.4321 37.5109C16.0435 38.2581 17.7419 39.7527 18.6929 40.2962C18.8288 40.3641 18.8968 40.4321 19.0326 40.5C19.9158 41.0435 21.0027 41.5869 21.9538 41.9946C22.7011 42.3342 24.4674 42.8098 25.4185 42.9456V44.4402H18.2853C17.8777 44.4402 17.6739 44.7119 17.6739 45.0516V48.2446L17.8777 48.856C17.8777 49.2636 18.1495 49.4674 18.4891 49.4674H37.5109C37.9185 49.4674 38.1223 49.1956 38.1223 48.856L38.394 48.2446V45.0516C38.394 44.644 38.1223 44.4402 37.7826 44.4402H30.5815V42.9456C32.3478 42.8098 34.8614 41.7228 36.356 40.9076C37.3071 40.3641 37.7826 40.0244 38.6658 39.3451C39.6848 38.5978 40.7038 37.375 41.519 36.356C43.6929 33.7065 44.9158 29.6304 44.9158 25.9619C44.9158 22.5652 43.7609 19.2364 41.8587 16.519C41.3832 15.8397 40.1603 14.3451 39.5489 13.8016L38.1223 12.6467C37.9864 12.7826 37.375 13.4619 37.3071 13.7337C37.7147 14.0054 38.1223 14.2772 38.394 14.6848L37.6468 15.6359C35.269 13.5299 31.9402 11.8994 28.7473 11.8994C26.1658 11.8994 24.1957 12.1032 21.8859 13.2581C20.2554 14.0734 19.0326 14.9565 17.8098 16.1793C17.606 16.3831 17.606 16.4511 17.4022 16.6549C17.2663 16.8587 17.1304 16.9266 16.9946 17.1304C14.8886 19.7799 13.6658 22.6331 13.6658 26.2337Z" fill="#285CA6"/>
<path fill-rule="evenodd" clip-rule="evenodd" d="M24.1277 23.2446C24.1277 22.0217 24.3315 22.5652 24.8071 21.8179C25.6902 22.2935 25.5544 22.2935 26.9131 22.2935C27.5245 22.2935 27.5924 22.2255 27.9321 22.5652C28.6114 23.2446 28.5435 22.9728 28.5435 23.856C28.5435 24.3315 27.1848 24.8071 27.1848 25.8261V26.8451C25.962 26.8451 26.3696 26.913 25.6223 26.1657C25.1468 25.6902 25.3506 25.7581 25.3506 24.9429C25.3506 24.1956 24.1277 23.7201 24.1277 23.2446ZM22.837 22.2935C22.837 24.1277 22.7011 23.788 23.6522 24.7391C24.4674 25.5543 23.856 25.4864 24.1277 26.3016C24.1957 26.6413 25.4185 28.1359 26.3016 28.1359C29.1549 28.1359 28.6114 28.2038 28.7473 26.0299C28.7473 25.6223 28.8832 25.6223 29.3587 25.1467C30.1739 24.3315 30.0381 24.6712 30.0381 22.8369C30.0381 22.6331 28.6794 21.0706 28.068 20.9348C27.4565 20.8668 26.7093 21.0706 26.1658 20.8668C24.6712 20.3913 25.1468 19.7119 23.7201 21.1386C23.3804 21.4782 22.837 21.8859 22.837 22.2935Z" fill="#285CA6"/>
<path fill-rule="evenodd" clip-rule="evenodd" d="M27.3207 37.7147C27.3207 38.0544 27.6604 37.9185 28.4756 37.9185C28.8152 37.9185 28.6794 37.4429 28.6794 36.5598H27.2527V37.7147H27.3207Z" fill="#285CA6"/>
<path fill-rule="evenodd" clip-rule="evenodd" d="M20.8669 34.0462H22.1576V32.6875H20.8669V34.0462Z" fill="#285CA6"/>
<path d="M28 3C34.9293 3 41.1793 5.78533 45.663 10.337C50.1467 14.8886 53 21.1386 53 28C53 34.8614 50.2147 41.1793 45.663 45.663C41.1114 50.2147 34.8614 53 28 53C21.1386 53 14.8207 50.2147 10.337 45.663C5.78533 41.1793 3 34.9293 3 28C3 21.0707 5.78533 14.8207 10.337 10.337C14.8886 5.85326 21.0707 3 28 3ZM43.7609 12.2391C39.7527 8.23098 34.1821 5.71739 28 5.71739C21.8179 5.71739 16.2473 8.23098 12.2391 12.2391C8.23098 16.2473 5.71739 21.8859 5.71739 28C5.71739 34.1141 8.23098 39.7527 12.2391 43.7609C16.2473 47.769 21.8179 50.2826 28 50.2826C34.1821 50.2826 39.7527 47.837 43.7609 43.7609C47.769 39.6848 50.2826 34.1821 50.2826 28C50.2826 21.8179 47.837 16.2473 43.7609 12.2391Z" fill="#285CA6"/>
</svg>
