<svg width="50" height="50" viewBox="0 0 50 50" fill="none" xmlns="http://www.w3.org/2000/svg">
<path fill-rule="evenodd" clip-rule="evenodd" d="M27.038 37.7038C27.038 38.1114 27.4457 38.1793 27.7853 38.1793C28.0571 38.1793 31.7935 34.3071 32.0652 34.0353C33.0163 33.0842 44.4293 21.5353 44.9049 21.2636V36.2772C41.5761 42.8668 36.6168 46.2636 30.4348 47.2147C30.7065 46.8071 36.0734 41.5081 36.9565 40.625C37.2283 40.3533 37.7717 39.9456 37.7717 39.4701C37.7717 39.0625 37.5679 38.8587 37.1603 38.8587C36.6848 38.8587 36.1413 39.538 35.8696 39.8777L28.8723 46.9429C28.5326 47.2826 28.6005 47.2147 27.9891 47.2147C21.3995 49.1168 18.0027 46.6033 11.6168 43.5462C11.8886 43.1386 19.0217 36.1413 19.9728 35.1902C20.788 34.375 21.5353 33.4918 22.3505 32.7446C22.6902 32.4049 23.7772 32.5408 24.5245 32.5408C26.9022 32.5408 29.3478 32.5408 31.7255 32.5408C31.1141 33.6277 27.038 36.9565 27.038 37.7038ZM9.375 44.2255C9.375 44.5652 9.71467 44.769 9.85054 44.8369C23.7092 52.3777 35.6658 50.5435 45.4484 37.5679C45.7201 37.2283 46.1277 37.2962 46.1277 36.8886V19.769C46.1277 19.4293 45.9919 19.2255 45.7201 19.1576C45.1766 18.9538 44.5652 19.8369 43.8859 20.5163L33.0163 31.3859C32.4728 31.5897 23.1658 31.3179 22.2147 31.4538C21.7391 31.5217 19.2255 34.2391 18.8179 34.6467L10.3261 43.0027C10.0543 43.2744 9.375 43.75 9.375 44.2255Z" fill="#285CA6"/>
<path fill-rule="evenodd" clip-rule="evenodd" d="M26.3587 16.644C27.038 17.663 27.2418 17.8668 27.9212 19.0217C28.9402 20.788 29.5516 24.1168 29.0081 26.2908V26.2228L28.125 24.1168C27.4456 22.6902 26.7663 21.6033 25.7473 20.3804C25.4076 19.9728 24.5924 19.0217 24.2527 18.75L26.3587 16.644ZM8.8315 31.25L7.33693 29.8234L19.769 17.3234L21.2636 18.8179L8.8315 31.25ZM22.7581 18.4783L20.0407 15.8288L23.3695 12.5L26.019 15.1495L22.7581 18.4783ZM24.932 12.0924C25.2038 12.0245 25.3396 11.8206 25.6793 11.8206C26.2907 11.8206 27.106 12.4321 26.4266 13.587C26.0869 13.519 25.1358 12.5 24.932 12.0924ZM12.0924 9.5788L14.1983 9.30706C14.9456 9.23913 16.9157 9.64674 17.663 9.91847C19.769 10.6658 20.1766 11.0734 21.807 12.2283L19.769 14.3342C19.5652 14.1984 17.9348 12.6359 16.3043 11.6168C15.3532 11.0734 14.2663 10.462 13.2473 10.0543L12.2282 9.64674C12.2282 9.64674 12.1603 9.5788 12.0924 9.5788C12.1603 9.5788 12.0924 9.5788 12.0924 9.5788ZM8.96737 9.64674C8.96737 10.6658 9.51084 10.1223 11.7527 10.8016C12.8396 11.1413 13.519 11.481 14.4701 11.9565C17.1195 13.2473 17.5951 14.2663 18.9538 15.1495C18.75 16.0326 18.2744 15.4891 18.9538 16.5081C18.682 16.9158 8.62769 26.9022 7.4728 28.0571C5.77443 29.7554 5.50269 29.6875 6.52171 30.7065C6.92932 31.1141 8.42389 32.8125 8.89943 32.8125C9.30704 32.8125 9.57878 32.4049 9.85052 32.0652C11.3451 30.5707 21.807 20.0408 22.2146 19.769C22.9619 20.2446 22.7581 20.2446 23.5054 19.769L24.3886 20.7201C26.1549 22.962 27.8532 25.4755 28.1929 28.3967C28.2608 29.0761 28.1929 29.6196 28.8723 29.6196C29.5516 29.6196 29.8913 28.125 30.0272 27.5815C30.9782 24.0489 30.3668 20.5842 28.4647 17.5951L27.1739 15.8288C27.3098 15.625 27.5136 15.5571 27.5815 15.2174C27.6494 14.8098 27.3777 14.8098 27.3098 14.4701C27.5136 14.1304 27.9891 13.7228 27.9891 12.8397C27.9891 10.5978 25.0679 9.91848 24.1168 11.3451C23.5054 10.9375 23.5733 10.8016 22.7581 11.3451C22.2826 11.0054 21.875 10.6658 21.0598 10.1223C20.4483 9.71467 19.8369 9.44293 19.1576 9.17119C14.2663 6.99728 8.96737 8.89945 8.96737 9.64674Z" fill="#285CA6"/>
<path fill-rule="evenodd" clip-rule="evenodd" d="M23.7092 26.7663C23.7092 27.1739 24.5924 27.9212 25 28.2609C25.7473 29.0082 26.019 29.5517 26.6984 29.5517C26.9701 29.5517 27.1739 29.212 27.1739 28.9402C27.1739 28.6006 24.6603 26.1549 24.4565 26.1549C24.1168 26.2228 23.7092 26.2228 23.7092 26.7663Z" fill="#285CA6"/>
<path fill-rule="evenodd" clip-rule="evenodd" d="M30.4348 29.0761C30.4348 29.4837 30.8424 29.5517 31.182 29.5517C31.3858 29.5517 33.8994 27.106 33.8994 26.7663C33.8994 26.2908 33.4918 26.1549 33.1521 26.1549C32.8804 26.1549 31.4538 27.7853 30.9782 28.193C30.7744 28.4647 30.4348 28.6685 30.4348 29.0761Z" fill="#285CA6"/>
<path fill-rule="evenodd" clip-rule="evenodd" d="M23.7092 40.8967C23.7092 41.2364 23.8451 41.644 24.3206 41.644C24.6603 41.644 26.2908 40.0136 26.2908 39.8098C26.2908 39.2663 26.2228 39.0625 25.6114 39.0625C25.3397 38.9946 23.7092 40.625 23.7092 40.8967Z" fill="#285CA6"/>
<path fill-rule="evenodd" clip-rule="evenodd" d="M38.451 37.5679C38.451 37.9076 38.7228 38.2473 39.0625 38.2473C39.4021 38.2473 40.8288 37.0924 40.8288 36.413C40.8288 36.2092 40.625 35.9375 40.2174 35.9375C39.7418 35.9375 39.4701 36.413 39.1983 36.6168C39.0625 36.7527 38.451 37.2283 38.451 37.5679Z" fill="#285CA6"/>
<path fill-rule="evenodd" clip-rule="evenodd" d="M21.6032 24.6603C21.6032 25 22.5543 25.9511 22.894 25.9511C23.0298 25.9511 24.0489 25.6114 23.0298 24.5924C22.826 24.3886 22.5543 24.0489 22.2826 24.0489C21.9429 24.0489 21.6032 24.3206 21.6032 24.6603Z" fill="#285CA6"/>
<path fill-rule="evenodd" clip-rule="evenodd" d="M34.1711 25.2038C34.1711 26.7663 35.9375 25.4756 35.9375 24.7283C35.9375 24.2527 35.6657 24.1169 35.2581 24.1169C35.0543 24.0489 34.1711 24.9321 34.1711 25.2038Z" fill="#285CA6"/>
<path d="M25 0C31.9293 0 38.1793 2.78533 42.663 7.33696C47.1467 11.8886 50 18.1386 50 25C50 31.8614 47.2147 38.1793 42.663 42.663C38.1114 47.2147 31.8614 50 25 50C18.1386 50 11.8207 47.2147 7.33696 42.663C2.78533 38.1793 0 31.9293 0 25C0 18.0707 2.78533 11.8207 7.33696 7.33696C11.8886 2.85326 18.0707 0 25 0ZM40.7609 9.23913C36.7527 5.23098 31.1821 2.71739 25 2.71739C18.8179 2.71739 13.2473 5.23098 9.23913 9.23913C5.23098 13.2473 2.71739 18.8859 2.71739 25C2.71739 31.1141 5.23098 36.7527 9.23913 40.7609C13.2473 44.769 18.8179 47.2826 25 47.2826C31.1821 47.2826 36.7527 44.837 40.7609 40.7609C44.769 36.6848 47.2826 31.1821 47.2826 25C47.2826 18.8179 44.837 13.2473 40.7609 9.23913Z" fill="#285CA6"/>
</svg>
